# xmcd CD database file
# Copyright (C) 1995-1998 Ti Kan
#
# Track frame offsets:
#	150
#	11372
#	21651
#	33511
#	42342
#	52530
#	61513
#	70890
#	79565
#	91447
#
# Disc length: 1372 seconds
#
# Revision: 1
# Processed by: cddbd v1.4b42PL1 Copyright (c) Steve Scherf et al.
# Submitted via: CDex 1.30Release
#
DISCID=6f055a0a
DTITLE=Mike Snider - Old Time Favorites
DYEAR=2001
DGENRE=Country
TTITLE0=Ryestraw Medley
TTITLE1=Soldiers Joy Medley
TTITLE2=Battle Cry Of Freedom
TTITLE3=Tennessee Rhapsody
TTITLE4=Shortnin Bread
TTITLE5=Waiting On Nancy
TTITLE6=John Henry
TTITLE7=Big Walker Mountain
TTITLE8=Clinch Mountain Medley
TTITLE9=Jimmy Brown
EXTD=YEAR: 2001 ID3G:   2
EXTT0=
EXTT1=
EXTT2=
EXTT3=
EXTT4=
EXTT5=
EXTT6=
EXTT7=
EXTT8=
EXTT9=
PLAYORDER=
